<svg width="1204" height="1209" viewBox="0 0 1204 1209" fill="none" xmlns="http://www.w3.org/2000/svg">
<mask id="mask0" mask-type="alpha" maskUnits="userSpaceOnUse" x="0" y="0" width="1204" height="1209">
<path d="M0.000566994 170.456C-0.247639 72.3772 81.0288 -4.19083 176.264 0.178057C186.727 0.658058 196.94 3.3529 206.836 6.78516L1041.04 296.115C1050.94 299.547 1061.22 301.771 1071.42 304.141C1177.21 328.712 1234.99 447.813 1185.12 547.675L901.949 1114.72C867.157 1184.39 789.736 1221.19 713.958 1204.08L134.574 1073.23C56.9638 1055.7 1.60973 986.317 1.40725 906.306L0.000566994 170.456Z" fill="#0180FF"/>
</mask>
<g mask="url(#mask0)">
<path d="M0.000567042 120.455C-0.261184 17.029 90.1349 -62.4772 191.956 -48.3758L1055.92 301.276C1171.43 317.273 1237.37 443.036 1185.12 547.675L901.949 1114.72C867.157 1184.39 789.736 1221.19 713.958 1204.08L134.574 1073.23C56.9638 1055.7 1.60971 986.317 1.40724 906.306L0.000567042 120.455Z" fill="#0180FF"/>
<path opacity="0.2" d="M-10.2734 1017.96C-115.908 958.118 -144.467 819.595 -70.9194 723.802L553.139 -89.0063C636.576 -197.678 803.157 -191.94 879.513 -77.764L1293.29 540.965C1344.13 616.986 1336.67 717.439 1275.18 784.884L805.067 1300.55C742.093 1369.63 639.163 1385.84 557.444 1339.55L-10.2734 1017.96Z" fill="url(#paint0_radial)"/>
<path opacity="0.21" d="M-10.027 1017.52C-115.4 957.831 -143.884 819.656 -70.5228 724.106L553.536 -88.7018C636.762 -197.1 802.931 -191.379 879.097 -77.4861L1292.87 541.243C1343.58 617.073 1336.15 717.273 1274.82 784.547L804.698 1300.21C741.882 1369.12 639.207 1385.29 557.69 1339.11L-10.027 1017.52Z" stroke="#97E6FF"/>
<path opacity="0.25" d="M175.324 905.467C97.8909 861.604 76.9558 760.062 130.869 689.843L588.325 94.0274C649.486 14.3676 771.596 18.5739 827.567 102.269L1130.88 555.817C1168.14 611.543 1162.68 685.179 1117.61 734.618L772.996 1112.62C726.834 1163.25 651.383 1175.14 591.48 1141.2L175.324 905.467Z" fill="url(#paint1_radial)"/>
<path opacity="0.21" d="M175.571 905.032C98.399 861.317 77.5393 760.123 131.266 690.147L588.721 94.3319C649.673 14.9452 771.37 19.1347 827.151 102.546L1130.46 556.095C1167.6 611.63 1162.15 685.012 1117.24 734.281L772.627 1112.28C726.623 1162.74 651.427 1174.59 591.726 1140.77L175.571 905.032Z" stroke="#97E6FF"/>
<path opacity="0.3" d="M365.242 790.621C316.666 763.104 303.533 699.404 337.354 655.354L624.328 281.583C662.696 231.61 739.299 234.249 774.411 286.753L964.686 571.276C988.064 606.234 984.636 652.428 956.361 683.442L740.177 920.573C711.219 952.337 663.886 959.791 626.307 938.504L365.242 790.621Z" fill="url(#paint2_radial)"/>
<path opacity="0.21" d="M365.488 790.186C317.174 762.817 304.116 699.465 337.75 655.658L624.724 281.887C662.883 232.188 739.072 234.81 773.995 287.031L964.271 571.554C987.521 606.322 984.111 652.261 955.992 683.105L739.808 920.236C711.007 951.827 663.931 959.241 626.554 938.069L365.488 790.186Z" stroke="#97E6FF"/>
<g filter="url(#filter0_f)">
<path d="M724.496 425.199C732.606 572.683 619.702 698.821 472.317 706.937C324.931 715.053 198.877 602.073 190.766 454.589C182.656 307.105 295.56 180.967 442.946 172.851C590.331 164.735 716.385 277.715 724.496 425.199Z" fill="#3FABFF"/>
</g>
</g>
<path d="M272.355 751.189L296.54 607.579L294.601 606.779L297.567 605.067C298.138 604.725 298.936 604.725 299.849 605.181L493.102 716.827C494.699 717.74 495.84 720.138 495.612 721.736L471.199 866.488C471.085 867.287 470.742 867.743 470.172 867.972L467.32 869.57L466.864 866.944L466.978 866.944L274.865 755.983C273.268 755.184 272.127 752.787 272.355 751.189Z" fill="white"/>
<path d="M491.96 720.823L495.154 719.453C495.496 720.252 495.725 721.165 495.611 721.85L471.197 866.602C471.083 867.401 470.741 867.858 470.171 868.086L467.318 869.684L466.862 867.058L466.976 867.058L457.279 861.465L491.96 720.823Z" fill="#A8CCF0"/>
<path d="M271.783 757.81L465.036 869.456C466.519 870.369 467.774 869.798 468.116 868.314L492.53 723.562C492.758 721.964 491.617 719.567 490.02 718.654L296.767 607.008C295.284 606.094 294.029 606.665 293.686 608.149L269.273 752.901C269.045 754.613 270.3 756.896 271.783 757.81Z" fill="#D4E3F7"/>
<path d="M299.277 616.255L485.571 723.905L462.413 860.209L276.232 752.673L299.277 616.255Z" fill="#F2F4F7"/>
<path d="M372.097 740.276L296.803 696.44C294.636 695.184 293.267 692.33 293.609 690.047L299.997 652.033C300.34 649.749 302.393 648.95 304.561 650.206L379.854 694.271C382.022 695.526 383.391 698.38 383.049 700.664L376.546 738.45C376.204 740.733 374.15 741.532 372.097 740.276Z" fill="#D4E3F7"/>
<path d="M407.461 820.186L287.676 750.893C285.509 749.637 284.14 746.783 284.482 744.5L290.871 706.6C291.213 704.317 293.266 703.518 295.434 704.773L415.333 774.523C417.501 775.779 418.87 778.633 418.527 780.802L412.025 818.36C411.682 820.643 409.629 821.442 407.461 820.186Z" fill="#D4E3F7"/>
<path d="M469.521 737.422L307.868 642.786C304.674 640.959 302.62 636.735 303.191 633.311L303.191 633.197C303.761 629.772 306.841 628.516 310.036 630.457L471.689 725.207C474.883 727.034 476.936 731.258 476.366 734.568L476.366 734.682C475.681 737.993 472.715 739.249 469.521 737.422Z" fill="#D4E3F7"/>
<path d="M452.75 846.328L421.264 828.177C419.096 826.922 417.727 824.182 418.183 821.899L424.686 784.341C425.028 782.058 427.082 781.259 429.249 782.514L460.622 800.78C462.789 802.035 464.158 804.775 463.702 807.058L457.199 844.502C456.857 846.785 454.803 847.584 452.75 846.328Z" fill="#D4E3F7"/>
<path d="M461.993 792.674L387.499 749.295C385.331 748.039 383.962 745.185 384.304 742.902L390.807 705.116C391.149 702.833 393.203 702.034 395.37 703.289L469.979 746.897C472.147 748.153 473.516 751.007 473.059 753.176L466.557 790.734C466.214 793.017 464.161 793.93 461.993 792.674Z" fill="#D4E3F7"/>
<path d="M150.4 826.304L160.896 831.784L266.649 770.709C268.474 769.682 271.555 769.796 273.608 771.052L456.024 876.419C457.735 875.392 465.721 871.625 465.721 871.625L461.842 880.529C461.728 880.986 461.386 881.442 460.815 881.67L349.358 946.055C347.533 947.083 344.452 946.969 342.399 945.713L155.762 837.834C154.964 837.377 154.393 836.807 154.165 836.122L150.4 826.304Z" fill="#A8CCF0"/>
<path d="M151.999 828.016L343.313 938.521C345.366 939.777 348.56 939.891 350.386 938.863L464.581 872.88C466.406 871.853 466.178 870.026 464.125 868.771L272.811 758.266C270.757 757.011 267.563 756.896 265.738 757.924L151.542 823.907C149.717 825.048 149.945 826.875 151.999 828.016Z" fill="#D4E3F7"/>
<path d="M398.412 914.942L398.412 913.385V913.385C398.412 913.169 398.153 913.268 397.968 913.379L393.293 916.17C393.024 916.331 392.722 916.531 392.722 916.845V916.845L392.722 918.401V918.401C392.722 918.617 392.981 918.518 393.167 918.408L397.842 915.616C398.111 915.456 398.412 915.255 398.412 914.942V914.942Z" fill="#F2F4F7"/>
<path d="M390.413 919.785L390.413 918.228V918.228C390.413 918.012 390.154 918.112 389.969 918.222L385.293 921.013C385.024 921.174 384.723 921.375 384.723 921.688V921.688L384.723 923.245V923.245C384.723 923.461 384.982 923.362 385.167 923.251L389.842 920.46C390.111 920.299 390.413 920.099 390.413 919.785V919.785Z" fill="#F2F4F7"/>
<path d="M434.692 866.716L275.777 774.933C274.751 774.362 273.382 774.362 272.355 774.933L215.771 807.696C214.972 808.153 214.972 809.295 215.771 809.865L374.686 901.648C375.713 902.219 377.082 902.219 378.108 901.648L434.807 868.885C435.605 868.428 435.605 867.172 434.692 866.716Z" fill="#A8CCF0"/>
<path d="M434.692 868.885L434.122 869.227L275.777 777.673C274.751 777.102 273.382 777.102 272.355 777.673L216.341 810.094L215.771 809.751C214.972 809.295 214.972 808.153 215.771 807.582L272.355 774.819C273.382 774.248 274.751 774.248 275.777 774.819L434.692 866.602C435.605 867.173 435.605 868.428 434.692 868.885Z" fill="#7DB2E8"/>
<path d="M268.131 783.267L406.169 862.949L412.329 859.41L274.177 779.728L268.131 783.267Z" fill="#D4E3F7"/>
<path d="M253.072 791.943L382.554 866.716L388.715 863.177L259.119 788.404L253.072 791.943Z" fill="#D4E3F7"/>
<path d="M243.264 797.536L395.676 885.666L401.836 882.127L249.31 793.998L243.264 797.536Z" fill="#D4E3F7"/>
<path d="M233.451 803.244L385.864 891.374L392.024 887.835L239.612 799.705L233.451 803.244Z" fill="#D4E3F7"/>
<path d="M223.641 808.952L376.053 896.968L382.213 893.429L229.801 805.413L223.641 808.952Z" fill="#D4E3F7"/>
<path d="M414.498 867.857L420.658 871.396L426.819 867.857L420.658 864.319L414.498 867.857Z" fill="#D4E3F7"/>
<path d="M392.824 872.652L405.601 880.072L411.762 876.533L398.985 869.113L392.824 872.652Z" fill="#D4E3F7"/>
<path d="M269.615 888.977L226.721 864.204C225.01 863.291 225.01 861.693 226.721 860.666L256.04 843.77C257.751 842.857 260.375 842.857 262.086 843.77L304.981 868.542C306.692 869.456 306.692 871.054 304.981 872.081L275.662 888.977C274.065 890.004 271.327 890.004 269.615 888.977Z" fill="#A8CCF0"/>
<path d="M304.98 870.026L262.085 845.254C260.374 844.341 257.75 844.341 256.039 845.254L226.72 862.15C226.15 862.492 225.922 862.835 225.694 863.177C225.237 862.378 225.58 861.351 226.72 860.666L256.039 843.77C257.75 842.857 260.374 842.857 262.085 843.77L304.98 868.542C306.121 869.227 306.463 870.141 306.007 871.054C305.893 870.597 305.55 870.255 304.98 870.026Z" fill="#7DB3E8"/>
<path d="M247.305 1118.66C247.006 1118.66 246.706 1118.66 246.407 1118.36C245.359 1117.91 245.06 1116.57 245.509 1115.67C247.605 1111.78 250.599 1108.34 253.743 1106.55C255.689 1105.35 257.786 1104.91 259.582 1104.91C262.277 1105.06 265.421 1103.11 268.266 1099.67C269.913 1097.73 271.709 1096.23 273.506 1095.04C275.452 1093.84 277.548 1093.24 279.345 1093.39C282.04 1093.54 285.184 1091.6 288.028 1088.16C289.675 1086.22 291.472 1084.72 293.268 1083.52C295.215 1082.33 297.311 1081.88 299.107 1081.88C301.802 1082.03 304.946 1080.09 307.791 1076.65C309.438 1074.7 311.234 1073.21 313.031 1072.01C316.025 1070.37 319.02 1069.92 321.415 1070.96C322.463 1071.41 322.912 1072.61 322.463 1073.66C322.014 1074.7 320.816 1075.15 319.768 1074.7C318.57 1074.1 316.924 1074.4 315.127 1075.6C313.63 1076.5 312.282 1077.69 310.935 1079.19C307.192 1083.67 302.85 1086.07 298.808 1085.92C297.76 1085.92 296.562 1086.22 295.215 1086.96C293.717 1087.86 292.37 1089.06 291.023 1090.55C287.28 1095.04 282.938 1097.43 278.896 1097.28C277.848 1097.28 276.65 1097.58 275.302 1098.33C273.805 1099.22 272.458 1100.42 271.11 1101.92C267.367 1106.4 263.026 1108.79 258.983 1108.64C257.935 1108.64 256.738 1108.94 255.39 1109.69C252.845 1111.19 250.3 1113.88 248.653 1117.17C248.653 1118.36 248.054 1118.66 247.305 1118.66Z" fill="#0BDAB8"/>
<path d="M154.092 591.147C154.092 593.689 152.295 596.68 150.199 597.876C148.103 599.072 146.307 598.175 146.307 595.633C146.307 593.091 148.103 590.101 150.199 588.905C152.295 587.559 154.092 588.606 154.092 591.147Z" fill="#0BDAB8"/>
<path d="M166.817 583.821C166.817 586.363 165.02 589.353 162.924 590.549C160.828 591.745 159.031 590.848 159.031 588.306C159.031 585.765 160.828 582.774 162.924 581.578C165.02 580.232 166.817 581.279 166.817 583.821Z" fill="#0BDAB8"/>
<path d="M179.395 576.494C179.395 579.036 177.598 582.027 175.502 583.223C173.406 584.419 171.609 583.522 171.609 580.98C171.609 578.438 173.406 575.448 175.502 574.252C177.748 573.055 179.395 573.952 179.395 576.494Z" fill="#0BDAB8"/>
<path d="M192.119 569.168C192.119 571.71 190.323 574.7 188.227 575.896C186.131 577.092 184.334 576.195 184.334 573.653C184.334 571.112 186.131 568.121 188.227 566.925C190.323 565.729 192.119 566.626 192.119 569.168Z" fill="#0BDAB8"/>
<path d="M446.092 984.774C446.092 987.316 444.295 990.306 442.199 991.502C440.103 992.699 438.307 991.801 438.307 989.26C438.307 986.718 440.103 983.727 442.199 982.531C444.295 981.335 446.092 982.382 446.092 984.774Z" fill="#0BDAB8"/>
<path d="M456.871 978.643C456.871 981.185 455.075 984.176 452.979 985.372C450.883 986.568 449.086 985.671 449.086 983.129C449.086 980.587 450.883 977.597 452.979 976.401C455.075 975.055 456.871 976.102 456.871 978.643Z" fill="#0BDAB8"/>
<path d="M446.092 972.363C446.092 974.905 444.295 977.896 442.199 979.092C440.103 980.288 438.307 979.391 438.307 976.849C438.307 974.307 440.103 971.317 442.199 970.121C444.295 968.924 446.092 969.971 446.092 972.363Z" fill="#0BDAB8"/>
<path d="M456.871 966.233C456.871 968.775 455.075 971.765 452.979 972.962C450.883 974.158 449.086 973.261 449.086 970.719C449.086 968.177 450.883 965.186 452.979 963.99C455.075 962.645 456.871 963.691 456.871 966.233Z" fill="#0BDAB8"/>
<path d="M494.439 653.739C492.942 653.739 491.445 653.29 490.098 652.543C487.103 650.749 485.307 647.16 485.307 642.525C485.307 633.554 491.445 622.937 499.23 618.452C503.273 616.059 507.315 615.76 510.309 617.555C513.304 619.349 515.1 622.937 515.1 627.573C515.1 636.544 508.962 647.16 501.177 651.646C498.931 653.141 496.535 653.739 494.439 653.739ZM506.117 620.396C504.62 620.396 502.973 620.844 501.326 621.891C494.739 625.778 489.349 635.049 489.349 642.674C489.349 645.964 490.397 648.356 492.194 649.403C493.99 650.45 496.535 650.151 499.38 648.506C505.968 644.618 511.357 635.348 511.357 627.722C511.357 624.433 510.309 622.04 508.513 620.994C507.764 620.545 507.016 620.396 506.117 620.396Z" fill="#0BDAB8"/>
<path d="M168.672 653.738L172.737 650.916C173.974 650.034 175.742 649.857 177.686 651.092L318.203 732.071C322.092 734.364 325.096 740.186 325.096 745.302L325.096 823.811C325.096 826.458 324.213 828.398 322.799 829.28L318.557 832.279L318.38 829.28C318.203 829.28 318.203 829.104 318.026 829.104L177.686 748.125C173.798 745.832 170.793 740.01 170.793 734.893L170.793 656.208C170.793 655.503 170.793 654.797 170.97 654.091L168.672 653.738Z" fill="#D4E3F7"/>
<path d="M324.743 742.127L287.626 763.474L278.258 758.181L320.325 733.835C322.446 735.952 324.036 738.951 324.743 742.127Z" fill="white"/>
<path d="M173.444 751.124L313.961 832.103C317.849 834.397 320.854 831.927 320.854 826.81L320.854 748.302C320.854 743.185 317.673 737.187 313.961 735.07L173.444 654.091C169.732 651.798 166.551 654.091 166.551 659.208L166.551 737.716C166.551 743.009 169.732 748.831 173.444 751.124Z" fill="#F2F4F7"/>
<path d="M320.147 827.163L320.147 748.655C320.147 743.538 316.966 737.54 313.254 735.423L172.737 654.444C171.146 653.562 169.909 653.386 168.672 653.915C169.909 653.033 171.677 653.033 173.444 654.091L313.961 734.893C317.85 737.187 320.854 743.009 320.854 748.125L320.854 826.634C320.854 829.81 319.794 831.75 318.026 832.456C319.264 831.75 320.147 829.81 320.147 827.163Z" fill="white"/>
<path d="M186.523 701.549L301.235 767.532C302.118 768.061 302.825 768.238 303.356 767.532C303.356 767.355 303.356 767.179 303.356 767.003L303.356 749.713C303.356 748.302 302.472 746.714 301.588 746.185L185.993 679.673C185.816 679.673 185.816 679.496 185.64 679.496C184.756 679.673 184.756 680.378 184.756 681.613L184.402 698.197C184.579 699.785 185.463 701.02 186.523 701.549Z" fill="#A8CCF0"/>
<path d="M186.348 739.304L301.236 805.287C302.119 805.816 303.18 806.345 303.357 805.287C303.357 805.11 303.357 804.934 303.357 804.757L303.357 787.468C303.357 786.056 302.473 784.469 301.589 783.939L185.994 717.604C185.817 717.604 185.817 717.428 185.641 717.428C184.757 717.075 184.58 718.31 184.58 719.545L184.58 735.952C184.58 737.187 185.287 738.775 186.348 739.304Z" fill="#A8CCF0"/>
<path d="M185.64 679.673C185.64 679.849 185.64 680.026 185.64 680.202L185.64 697.492C185.64 698.903 186.524 700.491 187.408 701.02L303.003 767.532C303.18 767.532 303.18 767.532 303.356 767.708C303.18 768.767 302.473 769.12 301.589 768.59L185.994 701.902C184.933 701.373 184.226 699.785 184.226 698.374L184.226 681.084C184.05 679.849 184.757 679.32 185.64 679.673Z" fill="white"/>
<path d="M185.64 717.427C185.64 717.604 185.64 717.78 185.64 717.957L185.64 735.246C185.64 736.658 186.524 738.246 187.408 738.775L303.003 805.287C303.18 805.287 303.18 805.287 303.356 805.463C303.18 806.522 302.473 806.874 301.589 806.345L185.994 739.833C184.933 739.304 184.226 737.716 184.226 736.305L184.226 719.015C184.05 717.78 184.757 717.075 185.64 717.427Z" fill="white"/>
<path d="M262.318 736.297L261.334 738.138L259.49 735.807L260.965 734.334L258.875 732.125L259.613 730.284L261.58 732.615L261.334 729.793L263.67 731.143L263.425 733.597L265.392 733.475L266.13 736.052L264.039 735.807L265.392 738.875L263.547 739.12L262.318 736.297Z" fill="white"/>
<path d="M253.095 731.02L252.111 732.861L250.267 730.529L251.62 729.056L249.529 726.847L250.267 725.006L252.234 727.338L251.989 724.515L254.325 725.865L254.079 728.32L256.046 728.197L256.784 730.775L254.694 730.529L256.046 733.597L254.079 733.966L253.095 731.02Z" fill="white"/>
<path d="M243.875 725.62L242.891 727.461L241.046 725.129L242.522 723.656L240.432 721.447L241.169 719.606L243.137 721.938L242.645 719.238L244.981 720.588L244.735 723.042L246.703 722.92L247.44 725.497L245.227 725.374L246.58 728.443L244.735 728.688L243.875 725.62Z" fill="white"/>
<path d="M234.65 720.342L233.666 722.183L231.822 719.851L233.297 718.379L231.207 716.169L231.945 714.328L233.912 716.66L233.666 713.837L236.002 715.187L235.757 717.642L237.724 717.519L238.462 720.097L236.371 719.851L237.724 722.92L235.634 723.288L234.65 720.342Z" fill="white"/>
<path d="M225.429 714.942L224.446 716.783L222.601 714.451L224.077 712.978L221.986 710.769L222.724 708.928L224.691 711.26L224.446 708.437L226.782 709.787L226.536 712.242L228.503 712.119L229.241 714.697L227.151 714.451L228.503 717.519L226.413 718.01L225.429 714.942Z" fill="white"/>
<path d="M262.318 773.152L261.334 774.993L259.49 772.661L260.965 771.188L258.875 768.979L259.613 767.138L261.58 769.47L261.334 766.647L263.67 767.997L263.425 770.451L265.392 770.329L266.13 772.906L264.039 772.661L265.392 775.729L263.547 775.974L262.318 773.152Z" fill="white"/>
<path d="M253.095 767.874L252.111 769.715L250.267 767.383L251.62 765.91L249.529 763.701L250.267 761.86L252.234 764.192L251.989 761.369L254.325 762.719L254.079 765.174L256.046 765.051L256.784 767.629L254.694 767.383L256.046 770.451L254.079 770.82L253.095 767.874Z" fill="white"/>
<path d="M243.875 762.474L242.891 764.315L241.046 761.983L242.522 760.51L240.432 758.301L241.169 756.46L243.137 758.792L242.645 756.092L244.981 757.442L244.735 759.897L246.703 759.774L247.44 762.351L245.227 762.228L246.58 765.297L244.735 765.542L243.875 762.474Z" fill="white"/>
<path d="M234.65 757.196L233.666 759.037L231.822 756.705L233.297 755.233L231.207 753.023L231.945 751.182L233.912 753.514L233.666 750.692L236.002 752.042L235.757 754.496L237.724 754.374L238.462 756.951L236.371 756.705L237.724 759.774L235.634 760.142L234.65 757.196Z" fill="white"/>
<path d="M225.429 751.796L224.446 753.637L222.601 751.305L224.077 749.832L221.986 747.623L222.724 745.782L224.691 748.114L224.446 745.291L226.782 746.641L226.536 749.096L228.503 748.973L229.241 751.551L227.151 751.305L228.503 754.373L226.413 754.864L225.429 751.796Z" fill="white"/>
<path d="M76.5951 990.504C78.1848 980.562 69.9003 925.869 67.582 904.824C97.0572 901.676 160.351 906.593 161.543 910.968C163.034 916.436 167.504 966.146 172.472 978.077C177.44 990.007 171.975 1000.94 167.504 1010.39C163.928 1017.94 149.199 1068.2 142.078 1092.72L118.227 1096.7C121.042 1089.24 126.769 1066.66 128.756 1041.21C131.24 1009.39 142.666 1006.41 141.672 987.025C140.877 971.515 122.795 940.131 113.853 926.378C113.191 937.314 111.27 963.462 108.885 980.562C105.905 1001.94 104.414 990.504 97.4595 1014.37C90.5047 1038.23 98.4531 1087.94 97.4595 1095.39C96.6647 1101.36 83.2187 1097.88 76.5951 1095.39C74.1112 1081.81 68.9448 1049.66 68.15 1029.78C67.1564 1004.92 74.608 1002.93 76.5951 990.504Z" fill="#D4E3F7"/>
<mask id="mask1" mask-type="alpha" maskUnits="userSpaceOnUse" x="67" y="903" width="108" height="196">
<path d="M76.5951 990.504C78.1848 980.562 69.9003 925.869 67.582 904.824C97.0572 901.676 160.351 906.593 161.543 910.968C163.034 916.436 167.504 966.146 172.472 978.077C177.44 990.007 171.975 1000.94 167.504 1010.39C163.928 1017.94 149.199 1068.2 142.078 1092.72L117.24 1096.7C120.055 1089.24 126.769 1066.66 128.756 1041.21C131.24 1009.39 142.666 1006.41 141.672 987.025C140.877 971.515 122.795 940.131 113.853 926.378C113.191 937.314 111.27 963.462 108.885 980.562C105.905 1001.94 104.414 990.504 97.4595 1014.37C90.5047 1038.23 98.4531 1087.94 97.4595 1095.39C96.6647 1101.36 83.2187 1097.88 76.5951 1095.39C74.1112 1081.81 68.9448 1049.66 68.15 1029.78C67.1564 1004.92 74.608 1002.93 76.5951 990.504Z" fill="#D2DDFD"/>
</mask>
<g mask="url(#mask1)">
<path opacity="0.4" d="M99.8531 922.711L60.4141 917.651L61.9205 906.714L65.3979 905.223L160.956 910.283L163.44 915.254L175.859 934.641L178.343 997.773C171.223 1027.27 156.982 1086.66 156.982 1088.25C156.982 1089.84 171.223 1110.78 178.343 1121.06C143.569 1131 133.137 1116.08 134.627 1097.69C136.118 1079.3 148.537 1055.93 154.498 1033.57C160.459 1011.2 153.008 1003.74 156.982 997.773C160.956 991.808 166.917 983.855 165.924 966.953C165.129 953.432 154.001 938.121 148.537 932.156L113.402 923.809C114.396 932.426 119.426 955.619 120.221 975.901C121.214 1001.25 104.324 1001.25 99.8531 1048.48C95.3822 1095.7 144.563 1132.99 116.247 1128.01C87.9306 1123.04 90.4145 1111.61 91.9048 1092.22C93.097 1076.71 92.4015 1035.39 91.9048 1016.66C90.58 1009.37 89.4209 992.604 95.3822 983.855C102.834 972.918 104.324 944.583 104.324 934.641C104.324 926.688 101.343 923.374 99.8531 922.711Z" fill="#7DB2E8"/>
</g>
<path d="M76.1406 1108.63L76.1406 1092.22L97.3679 1088.25L102.966 1111.11L76.1406 1108.63Z" fill="#0BDAB8"/>
<mask id="mask2" mask-type="alpha" maskUnits="userSpaceOnUse" x="76" y="1088" width="27" height="24">
<path d="M76.1406 1108.63L76.1406 1092.22L97.3679 1088.25L102.966 1111.11L76.1406 1108.63Z" fill="#0BDAB8"/>
</mask>
<g mask="url(#mask2)">
<path opacity="0.4" d="M99.8505 922.712L73.0248 922.712L72.0313 911.775L75.5087 910.284L160.954 910.284L163.437 915.255L175.857 934.642L178.341 997.774C171.22 1027.27 156.979 1086.66 156.979 1088.25C156.979 1089.84 171.22 1110.78 178.341 1121.06C143.566 1131 133.134 1116.09 134.625 1097.69C136.115 1079.3 148.534 1055.94 154.495 1033.57C160.457 1011.2 153.005 1003.74 156.979 997.774C160.954 991.809 166.915 983.856 165.921 966.954C165.126 953.433 153.999 938.122 148.534 932.157L116.244 924.7C117.238 933.317 119.423 955.62 120.218 975.902C121.212 1001.25 104.321 1001.25 99.8505 1048.48C95.3796 1095.7 144.56 1132.99 116.244 1128.02C87.928 1123.04 90.4118 1111.61 91.9022 1092.22C93.0944 1076.71 92.3989 1035.39 91.9022 1016.66C90.5774 1009.37 89.4183 992.605 95.3796 983.856C102.831 972.919 104.321 944.584 104.321 934.642C104.321 926.689 101.341 923.374 99.8505 922.712Z" fill="#7DB2E8"/>
</g>
<path d="M79.1219 1131.5C73.1606 1131.5 72.3327 1124.87 72.6639 1121.55L126.315 1127.02L140.225 1131.5L79.1219 1131.5Z" fill="#2952A3"/>
<path d="M90.5471 1106.14C86.5729 1103.36 85.5176 1102.66 81.5434 1102.66C73.5951 1102.66 71.6078 1117.58 72.1046 1124.04C72.502 1129.21 109.859 1127.02 127.308 1128.02C124.659 1125.2 117.671 1119.17 110.915 1117.58C102.47 1115.59 101.476 1101.17 100.979 1104.65C100.483 1108.13 95.5148 1109.62 90.5471 1106.14Z" fill="#7DB2E8"/>
<mask id="mask3" mask-type="alpha" maskUnits="userSpaceOnUse" x="72" y="1102" width="56" height="27">
<path d="M90.5471 1106.14C86.5729 1103.36 85.5176 1102.66 81.5434 1102.66C73.5951 1102.66 71.6078 1117.58 72.1046 1124.04C72.502 1129.21 109.859 1127.02 127.308 1128.02C124.659 1125.2 117.671 1119.17 110.915 1117.58C102.47 1115.59 101.476 1101.17 100.979 1104.65C100.483 1108.13 95.5148 1109.62 90.5471 1106.14Z" fill="#D2DDFD"/>
</mask>
<g mask="url(#mask3)">
<path opacity="0.4" d="M99.8525 922.712L73.0267 922.712L72.0332 911.775L75.5106 910.284L160.955 910.284L163.439 915.255L175.859 934.642L178.343 997.774C171.222 1027.27 156.981 1086.66 156.981 1088.25C156.981 1089.84 171.222 1110.78 178.343 1121.06C143.568 1131 133.136 1116.09 134.627 1097.69C136.117 1079.3 148.536 1055.94 154.497 1033.57C160.459 1011.2 153.007 1003.74 156.981 997.774C160.955 991.809 166.917 983.855 165.923 966.954C165.128 953.433 154.001 938.122 148.536 932.157L116.246 924.7C117.24 933.316 119.425 955.62 120.22 975.902C121.214 1001.25 104.323 1001.25 99.8525 1048.48C95.3815 1095.7 144.562 1132.99 116.246 1128.02C87.9299 1123.04 90.4138 1111.61 91.9041 1092.22C93.0964 1076.71 92.4009 1035.39 91.9041 1016.66C90.5794 1009.37 89.4202 992.604 95.3815 983.855C102.833 972.919 104.323 944.584 104.323 934.642C104.323 926.688 101.343 923.374 99.8525 922.712Z" fill="#4278AF"/>
</g>
<path d="M112.766 1111.11L119.72 1090.24L143.068 1091.23C140.683 1096.8 146.877 1103.49 150.024 1106.14L150.024 1122.05L112.766 1111.11Z" fill="#0BDAB8"/>
<mask id="mask4" mask-type="alpha" maskUnits="userSpaceOnUse" x="112" y="1090" width="39" height="33">
<path d="M112.766 1111.11L119.72 1090.24L143.068 1091.23C140.683 1096.8 146.877 1103.49 150.024 1106.14L150.024 1122.05L112.766 1111.11Z" fill="#0BDAB8"/>
</mask>
<g mask="url(#mask4)">
<path opacity="0.3" d="M99.8505 922.712L73.0248 922.712L72.0313 911.775L75.5087 910.284L160.954 910.284L163.437 915.255L175.857 934.642L178.341 997.774C171.22 1027.27 156.979 1086.66 156.979 1088.25C156.979 1089.84 171.22 1110.78 178.341 1121.06C143.566 1131 133.134 1116.09 134.625 1097.69C136.115 1079.3 148.534 1055.94 154.495 1033.57C160.457 1011.2 153.005 1003.74 156.979 997.774C160.954 991.809 166.915 983.856 165.921 966.954C165.126 953.433 153.999 938.122 148.534 932.157L116.244 924.7C117.238 933.317 119.423 955.62 120.218 975.902C121.212 1001.25 104.321 1001.25 99.8505 1048.48C95.3796 1095.7 114.947 1132.99 86.6307 1128.02C58.3147 1123.04 90.4118 1111.61 91.9022 1092.22C93.0944 1076.71 92.3989 1035.39 91.9022 1016.66C90.5774 1009.37 89.4183 992.605 95.3796 983.856C102.831 972.919 104.321 944.584 104.321 934.642C104.321 926.689 101.341 923.374 99.8505 922.712Z" fill="#0BDAB8"/>
</g>
<path d="M110.783 1128.51L110.783 1121.55L181.822 1123.04C181.822 1129.41 176.854 1131.33 174.37 1131.5L114.261 1131.5C111.876 1131.5 110.949 1129.51 110.783 1128.51Z" fill="#2952A3"/>
<path d="M115.752 1107.63C112.175 1108.43 110.95 1114.26 110.784 1117.08C110.837 1116.58 110.91 1117.68 110.784 1122.05C110.659 1126.43 120.223 1126.52 128.171 1126.52L172.881 1126.52C175.862 1126.52 181.823 1125.83 181.823 1123.04C181.823 1119.57 172.881 1119.07 162.449 1115.59C152.017 1112.11 153.01 1109.13 150.526 1105.65C148.042 1102.17 143.571 1101.67 144.565 1105.65C145.559 1109.62 146.055 1114.59 135.126 1114.59C124.197 1114.59 120.223 1106.64 115.752 1107.63Z" fill="#7DB2E8"/>
<mask id="mask5" mask-type="alpha" maskUnits="userSpaceOnUse" x="110" y="1102" width="72" height="25">
<path d="M115.752 1107.63C112.175 1108.43 110.95 1114.26 110.784 1117.08C110.837 1116.58 110.91 1117.68 110.784 1122.05C110.659 1126.43 120.223 1126.52 128.171 1126.52L172.881 1126.52C175.862 1126.52 181.823 1125.83 181.823 1123.04C181.823 1119.57 172.881 1119.07 162.449 1115.59C152.017 1112.11 153.01 1109.13 150.526 1105.65C148.042 1102.17 143.571 1101.67 144.565 1105.65C145.559 1109.62 146.055 1114.59 135.126 1114.59C124.197 1114.59 120.223 1106.64 115.752 1107.63Z" fill="#D2DDFD"/>
</mask>
<g mask="url(#mask5)">
<path opacity="0.4" d="M99.8525 922.712L73.0267 922.712L72.0332 911.775L75.5106 910.284L160.955 910.284L163.439 915.255L175.859 934.642L178.343 997.774C171.222 1027.27 156.981 1086.66 156.981 1088.25C156.981 1089.84 171.222 1110.78 178.343 1121.06C143.568 1131 133.136 1116.09 134.627 1097.69C136.117 1079.3 148.536 1055.94 154.497 1033.57C160.459 1011.2 153.007 1003.74 156.981 997.774C160.955 991.809 166.917 983.856 165.923 966.954C165.128 953.433 154.001 938.122 148.536 932.157L116.246 924.7C117.24 933.317 119.425 955.62 120.22 975.902C121.214 1001.25 104.323 1001.25 99.8525 1048.48C95.3815 1095.7 114.949 1132.99 86.6327 1128.02C58.3167 1123.04 90.4138 1111.61 91.9041 1092.22C93.0964 1076.71 92.4009 1035.39 91.9041 1016.66C90.5794 1009.37 89.4202 992.605 95.3815 983.856C102.833 972.919 104.323 944.584 104.323 934.642C104.323 926.689 101.343 923.374 99.8525 922.712Z" fill="#4278AF"/>
</g>
<path d="M100.424 683.695C98.0395 678.923 97.7746 676.073 97.9401 675.244C97.9401 656.851 143.146 648.898 146.127 651.383C149.108 653.869 150.598 665.799 148.114 668.782C145.63 671.765 148.114 677.73 148.114 680.712C148.114 683.695 145.63 691.152 143.146 697.117C140.663 703.082 140.166 703.082 134.701 702.088C130.33 701.293 126.587 707.39 125.263 710.539C116.983 707.722 100.821 701.392 102.411 698.608C104.398 695.129 103.405 689.66 100.424 683.695Z" fill="#FFCFCF"/>
<mask id="mask6" mask-type="alpha" maskUnits="userSpaceOnUse" x="97" y="650" width="53" height="61">
<path d="M100.445 683.695C98.061 678.923 97.796 676.073 97.9616 675.244C97.9616 656.851 143.168 648.898 146.149 651.383C149.129 653.869 150.62 665.799 148.136 668.782C145.652 671.765 148.136 677.73 148.136 680.712C148.136 683.695 145.652 691.152 143.168 697.117C140.684 703.082 140.187 703.082 134.723 702.088C130.351 701.293 126.609 707.39 125.284 710.539C117.005 707.722 100.843 701.392 102.433 698.608C104.42 695.129 103.426 689.66 100.445 683.695Z" fill="#D1BBD7"/>
</mask>
<g mask="url(#mask6)">
<path d="M98.9994 683.722C97.8072 680.143 97.8403 677.26 98.0059 676.266C98.5027 667.318 133.277 652.405 140.728 659.364C146.689 664.932 138.907 675.272 134.27 679.745C131.786 682.231 127.315 680.74 127.812 677.26C128.309 673.78 124.832 672.786 123.341 672.786C121.851 672.786 119.367 673.283 118.87 684.716C118.373 696.15 110.425 695.156 105.457 694.161C100.49 693.167 100.49 688.196 98.9994 683.722Z" fill="#EFB7B7"/>
<path opacity="0.4" d="M109.406 675.465L93.8451 675.465C92.8845 683.346 91.8855 699.568 95.5741 701.414C100.185 703.72 112.865 704.873 115.17 699.107C117.475 693.341 112.865 689.304 111.712 684.691C110.559 680.078 113.441 675.465 109.406 675.465Z" fill="#EFB7B7"/>
<path d="M125.086 676.934C125.348 677.021 125.631 676.88 125.719 676.618C125.806 676.356 125.665 676.073 125.403 675.985L125.086 676.934ZM122.867 685.223C123.039 685.438 123.354 685.473 123.57 685.301C123.785 685.128 123.82 684.814 123.648 684.598L122.867 685.223ZM125.403 675.985C124.824 675.792 123.918 675.698 123.076 676.079C122.196 676.477 121.49 677.347 121.272 678.874L122.262 679.016C122.441 677.76 122.977 677.221 123.488 676.99C124.038 676.741 124.672 676.796 125.086 676.934L125.403 675.985ZM121.272 678.874C120.85 681.828 122.142 684.316 122.867 685.223L123.648 684.598C123.048 683.848 121.889 681.63 122.262 679.016L121.272 678.874Z" fill="#D0A7A7"/>
</g>
<path d="M187.703 767.399C188.895 765.411 190.518 760.937 191.18 758.949C189.027 759.777 184.523 762.13 183.728 764.914C182.735 768.394 186.212 769.885 187.703 767.399Z" fill="#F5C5C5"/>
<path d="M174.785 750.995L161.869 762.925C164.022 766.074 169.023 771.973 171.805 770.382C175.282 768.394 178.263 770.382 183.23 766.902C188.198 763.423 199.624 755.804 199.127 752.822C198.713 750.336 197.14 750.162 195.65 750.995C194.159 751.827 192.272 752.983 190.682 752.983C189.092 752.983 190.682 750.995 191.675 750.001C197.14 746.852 207.771 740.257 206.579 739.064C205.386 737.871 203.764 738.567 203.101 739.064C197.968 741.053 186.906 745.129 183.727 745.527C180.548 745.924 176.441 749.338 174.785 750.995Z" fill="#FFCFCF"/>
<mask id="mask7" mask-type="alpha" maskUnits="userSpaceOnUse" x="161" y="738" width="46" height="33">
<path d="M174.785 750.995L161.869 762.925C164.022 766.074 169.023 771.973 171.805 770.382C175.282 768.394 178.263 770.382 183.23 766.902C188.198 763.423 199.127 755.966 198.63 752.983C198.233 750.597 196.478 750.663 195.65 750.995C194.656 751.658 192.272 752.983 190.682 752.983C189.092 752.983 190.682 750.995 191.675 750.001C197.14 746.852 207.771 740.257 206.579 739.064C205.386 737.871 203.764 738.567 203.101 739.064C197.968 741.053 186.906 745.129 183.727 745.527C180.548 745.924 176.441 749.338 174.785 750.995Z" fill="#FFD8D9"/>
</mask>
<g mask="url(#mask7)">
<path opacity="0.9" d="M170.812 763.422C167.633 762.627 164.851 763.754 163.857 764.417L171.806 770.382L176.774 766.902C176.111 766.074 173.992 764.218 170.812 763.422Z" fill="#EFB7B7"/>
<path opacity="0.9" d="M183.91 754.81C186.709 751.33 191.859 749.342 194.839 748.348L196.33 750.336C191.528 752.987 181.902 757.308 183.91 754.81Z" fill="#EFB7B7"/>
</g>
<path d="M173.296 769.885L162.864 761.931L162.367 761.434L147.025 768.865L149.012 791.732L173.296 769.885Z" fill="#EEF2FE"/>
<path d="M141.657 655.36C142.849 652.974 146.459 654.366 148.612 655.857C149.108 655.195 149.009 651.98 145.631 645.418C141.019 636.459 122.779 627.025 107.379 636.967C91.9795 646.909 88.0054 668.782 95.9537 676.239C103.902 683.695 109.863 674.25 119.302 666.297C128.741 658.343 131.225 662.32 138.179 661.823C145.134 661.325 140.166 658.343 141.657 655.36Z" fill="#2952A3"/>
<path d="M76.2637 722.334C85.4044 717.164 96.6314 704.273 101.102 698.473C111.435 697.28 123.292 703.941 127.928 707.421C127.431 716.369 133.393 715.375 138.857 722.334C143.229 727.902 150.283 796.9 153.264 830.703L165.186 918.194C165.186 919.353 160.814 921.474 143.328 920.679C121.47 919.685 84.0342 903.6 74.5956 907.079C65.1569 910.559 59.1956 911.553 57.7053 900.12C56.215 888.686 63.8445 882.899 65.8316 870.472C67.8187 858.044 66.3283 854.564 69.309 827.223C72.2896 799.883 60.8638 783.478 59.3735 761.109C57.8832 738.739 64.838 728.797 76.2637 722.334Z" fill="#EEF2FE"/>
<mask id="mask8" mask-type="alpha" maskUnits="userSpaceOnUse" x="57" y="698" width="109" height="223">
<path d="M76.2637 722.334C85.4044 717.164 96.6314 704.273 101.102 698.473C111.435 697.28 123.292 703.941 127.928 707.421C127.431 716.369 133.393 715.375 138.857 722.334C143.229 727.902 150.283 796.9 153.264 830.703L165.186 918.194C165.186 919.353 160.814 921.474 143.328 920.679C121.47 919.685 84.0342 903.6 74.5956 907.079C65.1569 910.559 59.1956 911.553 57.7053 900.12C56.215 888.686 63.8445 882.899 65.8316 870.472C67.8187 858.044 66.3283 854.564 69.309 827.223C72.2896 799.883 60.8638 783.478 59.3735 761.109C57.8832 738.739 64.838 728.797 76.2637 722.334Z" fill="#EEF2FE"/>
</mask>
<g mask="url(#mask8)">
<mask id="path-92-inside-1" fill="white">
<path fill-rule="evenodd" clip-rule="evenodd" d="M67.5805 934.56C149.941 934.56 216.707 867.749 216.707 785.334C216.707 702.919 149.941 636.109 67.5805 636.109C-14.7795 636.109 -81.5455 702.919 -81.5455 785.334C-81.5455 867.749 -14.7795 934.56 67.5805 934.56ZM67.5805 954.788C161.105 954.788 236.921 878.921 236.921 785.334C236.921 691.748 161.105 615.881 67.5805 615.881C-25.9435 615.881 -101.76 691.748 -101.76 785.334C-101.76 878.921 -25.9435 954.788 67.5805 954.788Z"/>
</mask>
<path fill-rule="evenodd" clip-rule="evenodd" d="M67.5805 934.56C149.941 934.56 216.707 867.749 216.707 785.334C216.707 702.919 149.941 636.109 67.5805 636.109C-14.7795 636.109 -81.5455 702.919 -81.5455 785.334C-81.5455 867.749 -14.7795 934.56 67.5805 934.56ZM67.5805 954.788C161.105 954.788 236.921 878.921 236.921 785.334C236.921 691.748 161.105 615.881 67.5805 615.881C-25.9435 615.881 -101.76 691.748 -101.76 785.334C-101.76 878.921 -25.9435 954.788 67.5805 954.788Z" fill="#0BDAB8"/>
<path d="M195.707 785.334C195.707 856.165 138.329 913.56 67.5805 913.56L67.5805 955.56C161.552 955.56 237.707 879.334 237.707 785.334L195.707 785.334ZM67.5805 657.109C138.329 657.109 195.707 714.504 195.707 785.334L237.707 785.334C237.707 691.334 161.552 615.109 67.5805 615.109L67.5805 657.109ZM-60.5455 785.334C-60.5455 714.504 -3.16825 657.109 67.5805 657.109L67.5805 615.109C-26.3907 615.109 -102.545 691.334 -102.545 785.334L-60.5455 785.334ZM67.5805 913.56C-3.16825 913.56 -60.5455 856.165 -60.5455 785.334L-102.545 785.334C-102.545 879.334 -26.3907 955.56 67.5805 955.56L67.5805 913.56ZM215.921 785.334C215.921 867.336 149.493 933.788 67.5805 933.788L67.5805 975.788C172.716 975.788 257.921 890.506 257.921 785.334L215.921 785.334ZM67.5805 636.881C149.493 636.881 215.921 703.332 215.921 785.334L257.921 785.334C257.921 680.163 172.716 594.881 67.5805 594.881L67.5805 636.881ZM-80.7598 785.334C-80.7598 703.332 -14.3323 636.881 67.5805 636.881L67.5805 594.881C-37.5547 594.881 -122.76 680.163 -122.76 785.334L-80.7598 785.334ZM67.5805 933.788C-14.3323 933.788 -80.7598 867.336 -80.7598 785.334L-122.76 785.334C-122.76 890.506 -37.5547 975.788 67.5805 975.788L67.5805 933.788Z" fill="#0BDAB8" mask="url(#path-92-inside-1)"/>
<mask id="path-94-inside-2" fill="white">
<path fill-rule="evenodd" clip-rule="evenodd" d="M69.3638 875.68C114.303 875.68 150.734 839.225 150.734 794.255C150.734 749.286 114.303 712.831 69.3638 712.831C24.4243 712.831 -12.0064 749.286 -12.0064 794.255C-12.0064 839.225 24.4243 875.68 69.3638 875.68ZM69.3638 895.908C125.467 895.908 170.948 850.397 170.948 794.255C170.948 738.114 125.467 692.603 69.3638 692.603C13.2602 692.603 -32.2207 738.114 -32.2207 794.255C-32.2207 850.397 13.2602 895.908 69.3638 895.908Z"/>
</mask>
<path fill-rule="evenodd" clip-rule="evenodd" d="M69.3638 875.68C114.303 875.68 150.734 839.225 150.734 794.255C150.734 749.286 114.303 712.831 69.3638 712.831C24.4243 712.831 -12.0064 749.286 -12.0064 794.255C-12.0064 839.225 24.4243 875.68 69.3638 875.68ZM69.3638 895.908C125.467 895.908 170.948 850.397 170.948 794.255C170.948 738.114 125.467 692.603 69.3638 692.603C13.2602 692.603 -32.2207 738.114 -32.2207 794.255C-32.2207 850.397 13.2602 895.908 69.3638 895.908Z" fill="#0BDAB8"/>
<path d="M129.734 794.255C129.734 827.64 102.692 854.68 69.3638 854.68L69.3638 896.68C125.915 896.68 171.734 850.81 171.734 794.255L129.734 794.255ZM69.3638 733.831C102.692 733.831 129.734 760.871 129.734 794.255L171.734 794.255C171.734 737.701 125.915 691.831 69.3638 691.831L69.3638 733.831ZM8.99361 794.255C8.99361 760.871 36.0355 733.831 69.3638 733.831L69.3638 691.831C12.8131 691.831 -33.0064 737.701 -33.0064 794.255L8.99361 794.255ZM69.3638 854.68C36.0355 854.68 8.99361 827.64 8.99361 794.255L-33.0064 794.255C-33.0064 850.81 12.8131 896.68 69.3638 896.68L69.3638 854.68ZM149.948 794.255C149.948 838.812 113.856 874.908 69.3638 874.908L69.3638 916.908C137.079 916.908 191.948 861.981 191.948 794.255L149.948 794.255ZM69.3638 713.603C113.856 713.603 149.948 749.699 149.948 794.255L191.948 794.255C191.948 726.53 137.079 671.603 69.3638 671.603L69.3638 713.603ZM-11.2207 794.255C-11.2207 749.699 24.8714 713.603 69.3638 713.603L69.3638 671.603C1.64902 671.603 -53.2207 726.53 -53.2207 794.255L-11.2207 794.255ZM69.3638 874.908C24.8714 874.908 -11.2207 838.812 -11.2207 794.255L-53.2207 794.255C-53.2207 861.981 1.64902 916.908 69.3638 916.908L69.3638 874.908Z" fill="#0BDAB8" mask="url(#path-94-inside-2)"/>
<mask id="path-96-inside-3" fill="white">
<path fill-rule="evenodd" clip-rule="evenodd" d="M69.3638 821.933C84.6396 821.933 97.023 809.541 97.023 794.255C97.023 778.969 84.6396 766.578 69.3638 766.578C54.088 766.578 41.7046 778.969 41.7046 794.255C41.7046 809.541 54.088 821.933 69.3638 821.933ZM69.3638 842.161C95.8036 842.161 117.237 820.713 117.237 794.255C117.237 767.798 95.8036 746.35 69.3638 746.35C42.924 746.35 21.4902 767.798 21.4902 794.255C21.4902 820.713 42.924 842.161 69.3638 842.161Z"/>
</mask>
<path fill-rule="evenodd" clip-rule="evenodd" d="M69.3638 821.933C84.6396 821.933 97.023 809.541 97.023 794.255C97.023 778.969 84.6396 766.578 69.3638 766.578C54.088 766.578 41.7046 778.969 41.7046 794.255C41.7046 809.541 54.088 821.933 69.3638 821.933ZM69.3638 842.161C95.8036 842.161 117.237 820.713 117.237 794.255C117.237 767.798 95.8036 746.35 69.3638 746.35C42.924 746.35 21.4902 767.798 21.4902 794.255C21.4902 820.713 42.924 842.161 69.3638 842.161Z" fill="#0BDAB8"/>
<path d="M76.023 794.255C76.023 797.957 73.0284 800.933 69.3638 800.933L69.3638 842.933C96.2508 842.933 118.023 821.126 118.023 794.255L76.023 794.255ZM69.3638 787.578C73.0284 787.578 76.023 790.554 76.023 794.255L118.023 794.255C118.023 767.385 96.2508 745.578 69.3638 745.578L69.3638 787.578ZM62.7046 794.255C62.7046 790.554 65.6992 787.578 69.3638 787.578L69.3638 745.578C42.4768 745.578 20.7046 767.385 20.7046 794.255L62.7046 794.255ZM69.3638 800.933C65.6992 800.933 62.7046 797.957 62.7046 794.255L20.7046 794.255C20.7046 821.126 42.4768 842.933 69.3638 842.933L69.3638 800.933ZM96.2374 794.255C96.2374 809.128 84.1924 821.161 69.3638 821.161L69.3638 863.161C107.415 863.161 138.237 832.298 138.237 794.255L96.2374 794.255ZM69.3638 767.35C84.1924 767.35 96.2374 779.383 96.2374 794.255L138.237 794.255C138.237 756.213 107.415 725.35 69.3638 725.35L69.3638 767.35ZM42.4902 794.255C42.4902 779.383 54.5352 767.35 69.3638 767.35L69.3638 725.35C31.3127 725.35 0.490234 756.213 0.490234 794.255L42.4902 794.255ZM69.3638 821.161C54.5352 821.161 42.4902 809.128 42.4902 794.255L0.490234 794.255C0.490235 832.298 31.3127 863.161 69.3638 863.161L69.3638 821.161Z" fill="#0BDAB8" mask="url(#path-96-inside-3)"/>
<path opacity="0.4" d="M112.177 772.07C110.19 752.186 122.609 749.204 129.067 750.198C139.83 780.024 162.847 846.934 168.809 875.965C176.26 912.254 158.873 939.595 143.473 927.167C128.073 914.739 143.473 881.93 125.093 860.058C106.712 838.185 101.744 834.208 109.196 817.804C116.648 801.4 114.661 796.926 112.177 772.07Z" fill="#7DB2E8"/>
<path opacity="0.4" d="M120.452 722.69C110.914 713.146 111.179 702.475 112.504 698.332L142.31 700.818L175.594 880.77L164.168 888.226C161.85 871.49 154.233 833.743 142.31 816.643C127.407 795.268 140.82 784.828 139.826 766.933C138.833 749.037 132.375 734.621 120.452 722.69Z" fill="#7DB2E8"/>
</g>
<path d="M158.031 897.123C157.237 895.135 154.72 887.347 153.561 883.702C158.528 880.885 168.464 875.748 168.464 877.736C168.464 880.222 173.431 886.684 174.922 890.164C176.412 893.644 173.431 892.152 173.928 902.094C174.326 910.048 173.763 914.025 173.431 915.019C171.444 917.836 166.874 923.569 164.49 923.967C162.105 924.365 161.509 921.15 161.509 919.493C157.038 918.499 159.025 911.539 159.522 906.568C160.019 901.597 159.025 899.609 158.031 897.123Z" fill="#FFCFCF"/>
<mask id="mask9" mask-type="alpha" maskUnits="userSpaceOnUse" x="153" y="877" width="23" height="48">
<path d="M158.031 897.123C157.237 895.135 154.72 887.347 153.561 883.702C158.528 880.885 168.464 875.748 168.464 877.736C168.464 880.222 173.431 886.684 174.922 890.164C176.412 893.644 173.431 892.152 173.928 902.094C174.326 910.048 173.763 914.025 173.431 915.019C171.444 917.836 166.874 923.569 164.49 923.967C162.105 924.365 161.509 921.15 161.509 919.493C157.038 918.499 159.025 911.539 159.522 906.568C160.019 901.597 159.025 899.609 158.031 897.123Z" fill="#D1BBD7"/>
</mask>
<g mask="url(#mask9)">
<path opacity="0.9" d="M163.495 886.187C161.508 883.801 156.375 887.181 154.057 889.17L157.037 911.042C160.846 909.551 168.562 906.071 168.96 904.083C169.457 901.597 165.979 889.17 163.495 886.187Z" fill="#EFB7B7"/>
</g>
<path d="M144.874 730.67C141.298 718.739 134.442 719.402 131.462 721.225C122.52 723.711 119.539 739.121 117.552 755.525C115.565 771.93 117.552 784.854 123.016 812.195C127.388 834.068 144.709 870.025 152.823 885.269L170.21 878.31C164.745 861.243 153.419 822.535 151.829 804.241C149.842 781.375 149.345 745.583 144.874 730.67Z" fill="#EEF2FE"/>
<mask id="mask10" mask-type="alpha" maskUnits="userSpaceOnUse" x="116" y="720" width="55" height="166">
<path d="M144.874 730.67C141.298 718.739 134.442 719.402 131.462 721.225C122.52 723.711 119.539 739.121 117.552 755.525C115.565 771.93 117.552 784.854 123.016 812.195C127.388 834.068 144.709 870.025 152.823 885.269L170.21 878.31C164.745 861.243 153.419 822.535 151.829 804.241C149.842 781.375 149.345 745.583 144.874 730.67Z" fill="#EEF2FE"/>
</mask>
<g mask="url(#mask10)">
<path opacity="0.4" d="M120.454 722.69C110.916 713.146 111.181 702.475 112.506 698.332L142.312 700.818L175.596 880.77L164.17 888.226C161.852 871.49 154.235 833.744 142.312 816.643C127.409 795.268 140.822 784.828 139.828 766.933C138.835 749.037 132.377 734.621 120.454 722.69Z" fill="#7DB2E8"/>
</g>
<defs>
<filter id="filter0_f" x="-59.6445" y="-77.5605" width="1034.55" height="1034.91" filterUnits="userSpaceOnUse" color-interpolation-filters="sRGB">
<feFlood flood-opacity="0" result="BackgroundImageFix"/>
<feBlend mode="normal" in="SourceGraphic" in2="BackgroundImageFix" result="shape"/>
<feGaussianBlur stdDeviation="125" result="effect1_foregroundBlur"/>
</filter>
<radialGradient id="paint0_radial" cx="0" cy="0" r="1" gradientUnits="userSpaceOnUse" gradientTransform="translate(641.026 590.086) rotate(12.0171) scale(888.217 977.33)">
<stop offset="0.583333" stop-color="#97E6FF" stop-opacity="0"/>
<stop offset="1" stop-color="#97E6FF"/>
</radialGradient>
<radialGradient id="paint1_radial" cx="0" cy="0" r="1" gradientUnits="userSpaceOnUse" gradientTransform="translate(652.746 591.826) rotate(12.0171) scale(651.093 716.415)">
<stop offset="0.583333" stop-color="#97E6FF" stop-opacity="0"/>
<stop offset="1" stop-color="#97E6FF"/>
</radialGradient>
<radialGradient id="paint2_radial" cx="0" cy="0" r="1" gradientUnits="userSpaceOnUse" gradientTransform="translate(664.742 593.865) rotate(12.0171) scale(408.448 449.426)">
<stop offset="0.583333" stop-color="#97E6FF" stop-opacity="0"/>
<stop offset="1" stop-color="#97E6FF"/>
</radialGradient>
</defs>
</svg>
